<svg width="16" height="16" viewBox="0 0 16 16" fill="none" xmlns="http://www.w3.org/2000/svg">
<path d="M7.31248 14.4166C7.31248 14.0369 7.62028 13.7291 7.99998 13.7291H13.5C13.6265 13.7291 13.7291 13.6265 13.7291 13.4999L13.7291 2.49992C13.7291 2.37335 13.6265 2.27075 13.5 2.27075L7.99998 2.27075C7.62028 2.27075 7.31248 1.96295 7.31248 1.58325C7.31248 1.20356 7.62028 0.895752 7.99998 0.895752H13.5C14.3859 0.895752 15.1041 1.61396 15.1041 2.49992V13.4999C15.1041 14.3859 14.3859 15.1041 13.5 15.1041H7.99998C7.62028 15.1041 7.31248 14.7963 7.31248 14.4166Z" fill="white"/>
<path d="M0.208313 9.0222C0.208313 9.52846 0.618718 9.93887 1.12498 9.93887H5.5763C5.59732 10.2647 5.62363 10.5902 5.65524 10.9154L5.68243 11.1952C5.72664 11.65 6.20968 11.9225 6.62183 11.7249C8.29742 10.9219 9.81431 9.82305 11.0995 8.48117L11.127 8.4525C11.3718 8.19686 11.3718 7.79372 11.127 7.53809L11.0995 7.50942C9.81431 6.16753 8.29742 5.06866 6.62183 4.26564C6.20969 4.06812 5.72664 4.34055 5.68243 4.79544L5.65524 5.0752C5.62363 5.40037 5.59732 5.72592 5.5763 6.05173L1.12498 6.05173C0.618719 6.05173 0.208313 6.46214 0.208313 6.9684V9.0222Z" fill="white"/>
</svg>
