<svg width="20" height="20" viewBox="0 0 20 20" fill="none" xmlns="http://www.w3.org/2000/svg">
<path d="M9.99998 0.145752C10.3797 0.145752 10.6875 0.453556 10.6875 0.833252V1.74992C10.6875 2.12961 10.3797 2.43742 9.99998 2.43742C9.62028 2.43742 9.31248 2.12961 9.31248 1.74992V0.833252C9.31248 0.453556 9.62028 0.145752 9.99998 0.145752Z" fill="white"/>
<path d="M9.99998 4.72908C7.08898 4.72908 4.72915 7.08892 4.72915 9.99992C4.72915 12.9109 7.08898 15.2708 9.99998 15.2708C12.911 15.2708 15.2708 12.9109 15.2708 9.99992C15.2708 7.08892 12.911 4.72908 9.99998 4.72908Z" fill="white"/>
<path d="M4.00432 3.03199C3.73583 2.76351 3.30053 2.76351 3.03204 3.03199C2.76356 3.30048 2.76356 3.73578 3.03204 4.00426L3.68023 4.65244C3.94871 4.92093 4.38401 4.92093 4.6525 4.65244C4.92098 4.38396 4.92098 3.94866 4.6525 3.68017L4.00432 3.03199Z" fill="white"/>
<path d="M19.8541 9.99992C19.8541 10.3796 19.5463 10.6874 19.1666 10.6874H18.25C17.8703 10.6874 17.5625 10.3796 17.5625 9.99992C17.5625 9.62022 17.8703 9.31242 18.25 9.31242H19.1666C19.5463 9.31242 19.8541 9.62022 19.8541 9.99992Z" fill="white"/>
<path d="M16.9679 4.00426C17.2364 3.73577 17.2364 3.30047 16.9679 3.03198C16.6994 2.7635 16.2641 2.7635 15.9956 3.03198L15.3475 3.68016C15.079 3.94865 15.079 4.38395 15.3475 4.65244C15.6159 4.92092 16.0512 4.92092 16.3197 4.65244L16.9679 4.00426Z" fill="white"/>
<path d="M9.99998 17.5624C10.3797 17.5624 10.6875 17.8702 10.6875 18.2499V19.1666C10.6875 19.5463 10.3797 19.8541 9.99998 19.8541C9.62028 19.8541 9.31248 19.5463 9.31248 19.1666V18.2499C9.31248 17.8702 9.62028 17.5624 9.99998 17.5624Z" fill="white"/>
<path d="M16.3198 15.3474C16.0513 15.0789 15.616 15.0789 15.3475 15.3474C15.079 15.6159 15.079 16.0512 15.3475 16.3197L15.9957 16.9679C16.2642 17.2363 16.6995 17.2363 16.968 16.9679C17.2365 16.6994 17.2365 16.2641 16.968 15.9956L16.3198 15.3474Z" fill="white"/>
<path d="M2.43748 9.99992C2.43748 10.3796 2.12968 10.6874 1.74998 10.6874H0.833313C0.453617 10.6874 0.145813 10.3796 0.145813 9.99992C0.145813 9.62022 0.453617 9.31242 0.833313 9.31242H1.74998C2.12968 9.31242 2.43748 9.62022 2.43748 9.99992Z" fill="white"/>
<path d="M4.65244 16.3197C4.92092 16.0512 4.92092 15.6159 4.65244 15.3474C4.38395 15.0789 3.94865 15.0789 3.68016 15.3474L3.03198 15.9956C2.7635 16.2641 2.7635 16.6994 3.03198 16.9679C3.30047 17.2363 3.73577 17.2363 4.00425 16.9679L4.65244 16.3197Z" fill="white"/>
</svg>
